<svg width="87" height="88" viewBox="0 0 87 88" fill="none" xmlns="http://www.w3.org/2000/svg">
<path d="M28.5757 12.8231L9.44041 38.6903C8.56365 39.8755 8.45604 41.4624 9.16479 42.7549L23.039 68.0624C23.3049 68.5477 23.6707 68.9625 24.1054 69.2841C24.5401 69.6056 25.0438 69.834 25.5857 69.9463L53.8454 75.8074C55.2887 76.1069 56.7746 75.5396 57.6514 74.3544L76.7866 48.4872L28.5757 12.8231Z" fill="#A3D7E8"/>
<path d="M52.6812 30.6551L24.1054 69.2841C24.5401 69.6056 25.0437 69.834 25.5857 69.9463L53.8454 75.8073C55.2887 76.1068 56.7746 75.5396 57.6514 74.3544L76.7866 48.4872L52.6812 30.6551Z" fill="#94CDE3"/>
<path d="M77.1076 44.3612L63.2334 19.0537C62.9675 18.5684 62.6017 18.1536 62.167 17.832C61.7323 17.5105 61.2286 17.2821 60.6867 17.1698L32.427 11.3087C30.9837 11.0092 29.4978 11.5765 28.621 12.7617L28.5756 12.8231L43.6683 40.353C44.165 41.2589 45.0336 41.9015 46.0452 42.1113L76.7866 48.4872L76.832 48.4258C77.7087 47.2406 77.8164 45.6537 77.1076 44.3612Z" fill="white"/>
</svg>
