<svg width="50" height="55" viewBox="0 0 50 55" fill="none" xmlns="http://www.w3.org/2000/svg">
<path d="M43.6208 0C46.8052 0 49.3697 2.57473 49.5209 5.60802V54.3478L43.4611 49.2001L40.1357 46.1753L36.4995 43.0078L38.0127 47.9976H6.22945C3.0535 47.9976 0.480469 45.591 0.480469 42.3896V5.61821C0.480469 2.58492 3.0552 0.0101902 6.23964 0.0101902H43.6038L43.6208 0ZM29.7672 12.8702H29.6958L29.2356 13.322C33.9333 14.6841 36.2057 16.8071 36.2057 16.8071C33.1809 15.2938 30.4465 14.5329 27.7223 14.2238C25.759 13.9232 23.7855 14.0829 22.1228 14.2238H21.6625C20.6011 14.2238 18.3371 14.6841 15.3021 15.895C14.2492 16.3553 13.6394 16.6559 13.6394 16.6559C13.6394 16.6559 15.9034 14.3818 20.9102 13.1709L20.6011 12.8702C20.6011 12.8702 16.8154 12.7191 12.7291 15.7456C12.7291 15.7456 8.64283 22.8668 8.64283 31.6406C8.64283 31.6406 10.9068 35.5774 17.1177 35.7269C17.1177 35.7269 18.028 34.5245 18.94 33.463C15.455 32.4015 14.0929 30.2785 14.0929 30.2785C14.0929 30.2785 14.402 30.4297 14.8538 30.7303H14.9862C15.0576 30.7303 15.0932 30.766 15.1272 30.8016V30.8186C15.1629 30.8543 15.1985 30.8798 15.2597 30.8798C16.0121 31.1889 16.7542 31.4895 17.3657 31.7901C18.4271 32.2418 19.7807 32.7004 21.4434 33.0027C23.5494 33.3118 25.9628 33.4545 28.7142 33.0027C30.0678 32.6936 31.4299 32.4015 32.7919 31.7901C33.6683 31.3383 34.7553 30.8882 35.9492 30.1189C35.9492 30.1189 34.5956 32.2418 30.9594 33.3033C31.7033 34.3563 32.7546 35.5673 32.7546 35.5673C38.9723 35.4263 41.3874 31.4895 41.5199 31.6576C41.5199 22.8923 37.4064 15.7626 37.4064 15.7626C33.7091 13.0112 30.241 12.9059 29.6313 12.9059L29.7553 12.8618L29.7672 12.8702ZM30.1476 22.8668C31.7407 22.8668 33.0229 24.2204 33.0229 25.8832C33.0229 27.5645 31.7322 28.9164 30.1476 28.9164C28.5545 28.9164 27.2722 27.5628 27.2722 25.9001C27.2722 24.2188 28.563 22.8668 30.1476 22.8668ZM19.8606 22.8668C21.4434 22.8668 22.7274 24.2204 22.7274 25.8832C22.7274 27.5645 21.4367 28.9164 19.8521 28.9164C18.259 28.9164 16.9682 27.5628 16.9682 25.9001C16.9682 24.2188 18.259 22.8668 19.8521 22.8668H19.8606Z" fill="white"/>
</svg>
