<svg width="22" height="25" viewBox="0 0 22 25" fill="none" xmlns="http://www.w3.org/2000/svg">
<path d="M19.2231 0.5C20.6294 0.5 21.7619 1.637 21.8286 2.9765V24.5L19.1526 22.2267L17.6841 20.891L16.0784 19.4923L16.7466 21.6957H2.71111C1.30861 21.6957 0.172363 20.633 0.172363 19.2192V2.981C0.172363 1.6415 1.30936 0.5045 2.71561 0.5045H19.2156L19.2231 0.5ZM13.1054 6.1835H13.0739L12.8706 6.383C14.9451 6.9845 15.9486 7.922 15.9486 7.922C14.6129 7.25375 13.4054 6.91775 12.2024 6.78125C11.3354 6.6485 10.4639 6.719 9.72961 6.78125H9.52636C9.05761 6.78125 8.05786 6.9845 6.71761 7.51925C6.25261 7.7225 5.98336 7.85525 5.98336 7.85525C5.98336 7.85525 6.98311 6.851 9.19411 6.31625L9.05761 6.1835C9.05761 6.1835 7.38586 6.11675 5.58136 7.45325C5.58136 7.45325 3.77686 10.598 3.77686 14.4725C3.77686 14.4725 4.77661 16.211 7.51936 16.277C7.51936 16.277 7.92136 15.746 8.32411 15.2772C6.78511 14.8085 6.18361 13.871 6.18361 13.871C6.18361 13.871 6.32011 13.9377 6.51961 14.0705H6.57811C6.60961 14.0705 6.62536 14.0862 6.64036 14.102V14.1095C6.65611 14.1252 6.67186 14.1365 6.69886 14.1365C7.03111 14.273 7.35886 14.4058 7.62886 14.5385C8.09761 14.738 8.69536 14.9405 9.42961 15.074C10.3596 15.2105 11.4254 15.2735 12.6404 15.074C13.2381 14.9375 13.8396 14.8085 14.4411 14.5385C14.8281 14.339 15.3081 14.1402 15.8354 13.8005C15.8354 13.8005 15.2376 14.738 13.6319 15.2067C13.9604 15.6717 14.4246 16.2065 14.4246 16.2065C17.1704 16.1442 18.2369 14.4057 18.2954 14.48C18.2954 10.6093 16.4789 7.46075 16.4789 7.46075C14.8461 6.24575 13.3146 6.19925 13.0454 6.19925L13.1001 6.17975L13.1054 6.1835ZM13.2734 10.598C13.9769 10.598 14.5431 11.1958 14.5431 11.93C14.5431 12.6725 13.9731 13.2695 13.2734 13.2695C12.5699 13.2695 12.0036 12.6718 12.0036 11.9375C12.0036 11.195 12.5736 10.598 13.2734 10.598ZM8.73061 10.598C9.42961 10.598 9.99661 11.1958 9.99661 11.93C9.99661 12.6725 9.42661 13.2695 8.72686 13.2695C8.02336 13.2695 7.45336 12.6718 7.45336 11.9375C7.45336 11.195 8.02336 10.598 8.72686 10.598H8.73061Z" fill="white"/>
</svg>
