<svg width="50" height="50" viewBox="0 0 50 50" fill="none" xmlns="http://www.w3.org/2000/svg">
<path d="M1.78564 44.6429V5.3572C1.78564 4.40999 2.16192 3.50159 2.83169 2.83181C3.50146 2.16204 4.40987 1.78577 5.35707 1.78577H44.6428C45.59 1.78577 46.4984 2.16204 47.1682 2.83181C47.8379 3.50159 48.2142 4.40999 48.2142 5.3572V44.6429C48.2142 45.5901 47.8379 46.4985 47.1682 47.1683C46.4984 47.8381 45.59 48.2143 44.6428 48.2143H33.9285V31.2858H36.4642C37.042 31.2858 37.5961 31.0562 38.0047 30.6477C38.4133 30.2391 38.6428 29.685 38.6428 29.1072V26.3572C38.6418 25.7797 38.412 25.2261 38.0037 24.8178C37.5953 24.4094 37.0417 24.1796 36.4642 24.1786H34.0714V20.8215C34.0714 17.8215 35.4285 17.8215 36.7856 17.8215H38.5356C38.8231 17.8333 39.1096 17.7819 39.375 17.6708C39.6403 17.5597 39.8781 17.3917 40.0714 17.1786C40.2789 16.981 40.4432 16.7425 40.5539 16.4782C40.6645 16.2139 40.7191 15.9294 40.7142 15.6429V13.0001C40.7247 12.709 40.6775 12.4187 40.5753 12.146C40.4731 11.8733 40.3179 11.6235 40.1187 11.411C39.9195 11.1986 39.6802 11.0276 39.4147 10.908C39.1491 10.7885 38.8625 10.7226 38.5714 10.7143H34.4642C33.2658 10.6693 32.0719 10.8849 30.965 11.3463C29.8581 11.8077 28.8645 12.5039 28.0529 13.3868C27.2413 14.2698 26.631 15.3183 26.2643 16.4601C25.8975 17.6019 25.7829 18.8097 25.9285 20.0001V24.1786H23.6428C23.3537 24.1739 23.0666 24.2267 22.7981 24.3341C22.5297 24.4415 22.2853 24.6012 22.0792 24.8039C21.8731 25.0067 21.7094 25.2485 21.5977 25.5152C21.486 25.7818 21.4285 26.0681 21.4285 26.3572V29.1072C21.4285 29.3963 21.486 29.6826 21.5977 29.9492C21.7094 30.2159 21.8731 30.4577 22.0792 30.6604C22.2853 30.8632 22.5297 31.0229 22.7981 31.1303C23.0666 31.2377 23.3537 31.2905 23.6428 31.2858H25.9285V48.2143H5.35707C4.40987 48.2143 3.50146 47.8381 2.83169 47.1683C2.16192 46.4985 1.78564 45.5901 1.78564 44.6429Z" stroke="white" stroke-width="3" stroke-linecap="round" stroke-linejoin="round"/>
</svg>
