<svg width="50" height="50" viewBox="0 0 50 50" fill="none" xmlns="http://www.w3.org/2000/svg">
<path d="M14.5832 0.198364H35.4165C43.353 0.198364 49.8014 6.64678 49.8014 14.5833V35.4166C49.8014 39.2317 48.2859 42.8906 45.5882 45.5883C42.8905 48.286 39.2316 49.8015 35.4165 49.8015H14.5832C6.64666 49.8015 0.198242 43.3531 0.198242 35.4166V14.5833C0.198242 10.7682 1.71379 7.10931 4.41149 4.41161C7.10918 1.71391 10.768 0.198364 14.5832 0.198364ZM14.0871 5.15868C11.7191 5.15868 9.44811 6.09937 7.77368 7.7738C6.09925 9.44823 5.15856 11.7192 5.15856 14.0873V35.9127C5.15856 40.8482 9.15162 44.8412 14.0871 44.8412H35.9125C38.2805 44.8412 40.5516 43.9005 42.226 42.2261C43.9004 40.5517 44.8411 38.2807 44.8411 35.9127V14.0873C44.8411 9.15174 40.848 5.15868 35.9125 5.15868H14.0871ZM38.0207 8.87892C38.8429 8.87892 39.6314 9.20555 40.2128 9.78695C40.7942 10.3683 41.1209 11.1569 41.1209 11.9791C41.1209 12.8013 40.7942 13.5899 40.2128 14.1713C39.6314 14.7527 38.8429 15.0793 38.0207 15.0793C37.1984 15.0793 36.4099 14.7527 35.8285 14.1713C35.2471 13.5899 34.9205 12.8013 34.9205 11.9791C34.9205 11.1569 35.2471 10.3683 35.8285 9.78695C36.4099 9.20555 37.1984 8.87892 38.0207 8.87892ZM24.9998 12.5992C28.2887 12.5992 31.4429 13.9057 33.7685 16.2313C36.0941 18.5569 37.4006 21.7111 37.4006 25C37.4006 28.2888 36.0941 31.443 33.7685 33.7686C31.4429 36.0942 28.2887 37.4007 24.9998 37.4007C21.7109 37.4007 18.5567 36.0942 16.2311 33.7686C13.9055 31.443 12.599 28.2888 12.599 25C12.599 21.7111 13.9055 18.5569 16.2311 16.2313C18.5567 13.9057 21.7109 12.5992 24.9998 12.5992ZM24.9998 17.5595C23.0265 17.5595 21.134 18.3434 19.7386 19.7387C18.3433 21.1341 17.5594 23.0266 17.5594 25C17.5594 26.9733 18.3433 28.8658 19.7386 30.2612C21.134 31.6565 23.0265 32.4404 24.9998 32.4404C26.9732 32.4404 28.8657 31.6565 30.261 30.2612C31.6564 28.8658 32.4403 26.9733 32.4403 25C32.4403 23.0266 31.6564 21.1341 30.261 19.7387C28.8657 18.3434 26.9732 17.5595 24.9998 17.5595Z" fill="white"/>
</svg>
