<svg width="306" height="56" viewBox="0 0 306 56" fill="none" xmlns="http://www.w3.org/2000/svg">
<path d="M27.6797 56C42.9713 56 55.3594 43.475 55.3594 28C55.3594 12.525 42.9713 0 27.6797 0C12.3881 0 0 12.525 0 28C0 43.475 12.3881 56 27.6797 56Z" fill="url(#paint0_linear_57_791)"/>
<path d="M18.6792 18.6665V39.6544H35.9548L18.6792 18.6665Z" fill="url(#paint1_linear_57_791)"/>
<path d="M1.88721 39.6544H19.1628V18.6665L1.88721 39.6544Z" fill="white"/>
<path d="M5.61328 44.7803C7.21019 46.9081 9.04905 48.7941 11.1299 50.3899H44.3261C46.4069 48.7941 48.2942 46.9081 49.8427 44.7803H5.61328Z" fill="#FC9965"/>
<path d="M11.2275 50.3906C15.8247 53.9208 21.5832 56.0003 27.8257 56.0003C34.0681 56.0003 39.8267 53.9208 44.4238 50.3906H11.2275Z" fill="#FF2D55"/>
<path d="M37.3579 29.8379V45.2645H50.0364L37.3579 29.8379Z" fill="url(#paint2_linear_57_791)"/>
<path d="M36.6804 39.2188H1.88721C2.75825 41.2015 3.82285 43.0875 5.12941 44.8284H36.7288L36.6804 39.2188Z" fill="#FFBC5B"/>
<path d="M24.292 45.2645H36.9704V29.8379L24.292 45.2645Z" fill="white"/>
<path d="M36.8262 25.1951C40.6491 25.1951 43.7461 22.0517 43.7461 18.183C43.7461 14.3142 40.6491 11.1709 36.8262 11.1709C33.0033 11.1709 29.9062 14.3142 29.9062 18.183C29.9062 22.0517 33.0033 25.1951 36.8262 25.1951Z" fill="#FFC95B"/>
<path d="M20.2756 14.4598C22.1629 14.4598 23.7114 12.9123 23.7114 10.9779C23.7114 9.04358 22.1629 7.49609 20.2756 7.49609C18.3884 7.49609 16.8398 9.04358 16.8398 10.9779C16.8398 12.9123 18.3884 14.4598 20.2756 14.4598Z" fill="#FFC95B"/>
<path d="M89.6686 16.8775C92.0882 16.8775 94.169 17.3611 95.9594 18.2799C97.7983 19.1987 99.2016 20.5528 100.169 22.2937C101.186 24.0346 101.67 26.0174 101.67 28.2902C101.67 30.5631 101.186 32.5942 100.169 34.2868C99.2016 35.9794 97.7983 37.2851 95.9594 38.2522C94.169 39.1711 92.0398 39.6547 89.6686 39.6547H81.6841V16.8291H89.6686V16.8775ZM89.475 35.7859C91.8946 35.7859 93.7335 35.1089 95.04 33.8032C96.3466 32.4975 97.024 30.6599 97.024 28.2902C97.024 25.9206 96.3466 24.083 95.04 22.7289C93.7335 21.3749 91.8946 20.6978 89.475 20.6978H86.2328V35.7376H89.475V35.7859Z" fill="white"/>
<path d="M121.945 30.2248C121.945 30.9018 121.897 31.4821 121.8 31.9657H108.541C108.638 33.2714 109.122 34.287 109.896 35.0607C110.719 35.7861 111.687 36.173 112.848 36.173C114.542 36.173 115.751 35.4476 116.477 33.9968H121.413C120.881 35.7378 119.865 37.1885 118.413 38.3008C116.913 39.413 115.122 39.945 112.945 39.945C111.203 39.945 109.654 39.5581 108.251 38.7844C106.896 38.0106 105.783 36.8984 105.009 35.496C104.234 34.0935 103.847 32.4493 103.847 30.6117C103.847 28.7257 104.234 27.0814 105.009 25.679C105.783 24.2766 106.847 23.1643 108.202 22.3906C109.557 21.6169 111.154 21.23 112.945 21.23C114.687 21.23 116.187 21.6168 117.542 22.3422C118.897 23.0676 119.961 24.1315 120.736 25.5339C121.558 26.888 121.945 28.4355 121.945 30.2248ZM117.203 28.9191C117.203 27.7585 116.768 26.7913 115.945 26.1143C115.122 25.3889 114.106 25.0504 112.896 25.0504C111.783 25.0504 110.815 25.3889 110.041 26.1143C109.267 26.7913 108.831 27.7585 108.638 28.9675H117.203V28.9191Z" fill="white"/>
<path d="M124.124 30.6116C124.124 28.7256 124.511 27.0814 125.285 25.7274C126.06 24.3249 127.124 23.2127 128.479 22.4389C129.834 21.6652 131.383 21.2783 133.125 21.2783C135.351 21.2783 137.238 21.8586 138.69 22.9709C140.19 24.0832 141.158 25.6306 141.642 27.6617H136.706C136.464 26.888 135.98 26.2593 135.351 25.8241C134.722 25.3889 133.996 25.1471 133.076 25.1471C131.77 25.1471 130.754 25.6307 129.979 26.5978C129.205 27.5167 128.818 28.8707 128.818 30.6116C128.818 32.3526 129.205 33.6583 129.979 34.6255C130.754 35.5443 131.77 36.0279 133.076 36.0279C134.915 36.0279 136.125 35.2058 136.706 33.5616H141.642C141.158 35.5443 140.141 37.0918 138.69 38.2524C137.19 39.413 135.351 39.9933 133.125 39.9933C131.383 39.9933 129.834 39.6065 128.479 38.8327C127.124 38.059 126.06 36.9467 125.285 35.5443C124.511 34.1419 124.124 32.4977 124.124 30.6116Z" fill="white"/>
<path d="M161.771 30.2248C161.771 30.9018 161.722 31.4821 161.625 31.9657H148.415C148.511 33.2714 148.995 34.287 149.77 35.0607C150.592 35.7861 151.56 36.173 152.721 36.173C154.415 36.173 155.625 35.4476 156.351 33.9968H161.287C160.754 35.7378 159.738 37.1885 158.286 38.3008C156.786 39.413 154.996 39.945 152.818 39.945C151.076 39.945 149.528 39.5581 148.124 38.7844C146.769 38.0106 145.656 36.8984 144.882 35.496C144.108 34.0935 143.721 32.4493 143.721 30.6117C143.721 28.7257 144.108 27.0814 144.882 25.679C145.656 24.2766 146.721 23.1643 148.076 22.3906C149.431 21.6169 151.028 21.23 152.818 21.23C154.56 21.23 156.06 21.6168 157.415 22.3422C158.77 23.0676 159.835 24.1315 160.609 25.5339C161.432 26.888 161.771 28.4355 161.771 30.2248ZM157.028 28.9191C157.028 27.7585 156.593 26.7913 155.77 26.1143C154.947 25.3889 153.931 25.0504 152.721 25.0504C151.608 25.0504 150.641 25.3889 149.866 26.1143C149.092 26.7913 148.657 27.7585 148.463 28.9675H157.028V28.9191Z" fill="white"/>
<path d="M175.176 21.2783C177.353 21.2783 179.095 21.9553 180.402 23.3578C181.708 24.7118 182.386 26.5978 182.386 29.0641V39.7032H177.789V29.6445C177.789 28.1937 177.45 27.1298 176.724 26.356C175.998 25.5823 175.031 25.1954 173.772 25.1954C172.514 25.1954 171.498 25.5823 170.772 26.356C170.046 27.1298 169.708 28.242 169.708 29.6445V39.6548H165.11V21.5685H169.708V23.8414C170.337 23.0676 171.111 22.4389 172.03 22.0037C172.998 21.5201 174.014 21.2783 175.176 21.2783Z" fill="white"/>
<path d="M192.064 25.3402V34.0933C192.064 34.7219 192.209 35.1572 192.5 35.4473C192.79 35.6891 193.322 35.8342 194 35.8342H196.129V39.7029H193.274C189.403 39.7029 187.467 37.8169 187.467 34.0933V25.3886H185.29V21.6166H187.467V17.0708H192.064V21.5682H196.129V25.3402H192.064Z" fill="white"/>
<path d="M204.017 24.3733C204.598 23.4061 205.372 22.6807 206.291 22.1004C207.259 21.5685 208.324 21.2783 209.582 21.2783V26.0659H208.372C206.921 26.0659 205.856 26.4044 205.082 27.0814C204.356 27.7585 204.017 28.9191 204.017 30.6116V39.6065H199.42V21.5201H204.017V24.3733Z" fill="white"/>
<path d="M211.469 30.5633C211.469 28.7257 211.807 27.1298 212.533 25.679C213.259 24.2766 214.275 23.1643 215.485 22.3906C216.743 21.6169 218.147 21.23 219.695 21.23C221.05 21.23 222.212 21.5201 223.228 22.0521C224.244 22.584 225.067 23.2611 225.696 24.1315V21.5685H230.293V39.6549H225.696V36.9951C225.115 37.8656 224.292 38.5426 223.228 39.1229C222.212 39.6549 221.002 39.945 219.647 39.945C218.098 39.945 216.743 39.5581 215.485 38.7844C214.227 38.0106 213.259 36.8984 212.533 35.496C211.807 34.0452 211.469 32.401 211.469 30.5633ZM225.744 30.6117C225.744 29.4994 225.502 28.5322 225.067 27.7585C224.631 26.9364 224.05 26.3561 223.325 25.9208C222.599 25.4856 221.776 25.2438 220.953 25.2438C220.082 25.2438 219.308 25.4372 218.582 25.8725C217.856 26.3077 217.276 26.888 216.84 27.7101C216.405 28.4839 216.163 29.451 216.163 30.5149C216.163 31.5788 216.405 32.546 216.84 33.3682C217.276 34.1903 217.905 34.8189 218.582 35.2542C219.308 35.6894 220.131 35.9312 220.953 35.9312C221.824 35.9312 222.599 35.7378 223.325 35.3025C224.05 34.8673 224.631 34.2386 225.067 33.4649C225.502 32.6911 225.744 31.7239 225.744 30.6117Z" fill="white"/>
<path d="M239.39 15.4751V39.6547H234.793V15.4751H239.39Z" fill="white"/>
<path d="M242.729 30.5633C242.729 28.7257 243.068 27.1298 243.794 25.679C244.519 24.2766 245.536 23.1643 246.745 22.3906C248.004 21.6169 249.407 21.23 250.955 21.23C252.31 21.23 253.472 21.5201 254.488 22.0521C255.504 22.584 256.327 23.2611 256.956 24.1315V21.5685H261.553V39.6549H256.956V36.9951C256.375 37.8656 255.553 38.5426 254.488 39.1229C253.472 39.6549 252.262 39.945 250.907 39.945C249.359 39.945 248.004 39.5581 246.745 38.7844C245.487 38.0106 244.519 36.8984 243.794 35.496C243.068 34.0452 242.729 32.401 242.729 30.5633ZM257.004 30.6117C257.004 29.4994 256.762 28.5322 256.327 27.7585C255.891 26.9364 255.311 26.3561 254.585 25.9208C253.859 25.4856 253.036 25.2438 252.214 25.2438C251.343 25.2438 250.568 25.4372 249.842 25.8725C249.117 26.3077 248.536 26.888 248.1 27.7101C247.665 28.4839 247.423 29.451 247.423 30.5149C247.423 31.5788 247.616 32.546 248.1 33.3682C248.536 34.1903 249.165 34.8189 249.842 35.2542C250.568 35.6894 251.391 35.9312 252.214 35.9312C253.085 35.9312 253.859 35.7378 254.585 35.3025C255.311 34.8673 255.891 34.2386 256.327 33.4649C256.762 32.6911 257.004 31.7239 257.004 30.6117Z" fill="white"/>
<path d="M276.119 21.2783C278.297 21.2783 280.039 21.9553 281.345 23.3578C282.652 24.7118 283.329 26.5978 283.329 29.0641V39.7032H278.732V29.6445C278.732 28.1937 278.393 27.1298 277.668 26.356C276.942 25.5823 275.974 25.1954 274.716 25.1954C273.458 25.1954 272.441 25.5823 271.715 26.356C270.99 27.1298 270.651 28.242 270.651 29.6445V39.6548H266.054V21.5685H270.651V23.8414C271.28 23.0676 272.054 22.4389 272.974 22.0037C273.941 21.5201 274.958 21.2783 276.119 21.2783Z" fill="white"/>
<path d="M286.523 30.5632C286.523 28.7255 286.862 27.1297 287.588 25.6789C288.314 24.2765 289.33 23.1642 290.588 22.3905C291.846 21.6167 293.25 21.2299 294.798 21.2299C295.96 21.2299 297.073 21.4717 298.186 22.0036C299.25 22.4872 300.121 23.1642 300.75 24.0347V15.4268H305.396V39.6064H300.75V36.9466C300.17 37.8171 299.395 38.5425 298.379 39.1228C297.363 39.6547 296.153 39.9449 294.798 39.9449C293.25 39.9449 291.895 39.558 290.637 38.7843C289.379 38.0105 288.362 36.8983 287.636 35.4958C286.862 34.0451 286.523 32.4008 286.523 30.5632ZM300.75 30.6116C300.75 29.4993 300.508 28.5321 300.073 27.7584C299.637 26.9363 299.057 26.3559 298.331 25.9207C297.605 25.4855 296.782 25.2437 295.96 25.2437C295.137 25.2437 294.314 25.4371 293.589 25.8724C292.863 26.3076 292.282 26.8879 291.846 27.71C291.411 28.4837 291.169 29.4509 291.169 30.5148C291.169 31.5787 291.363 32.5459 291.846 33.368C292.282 34.1901 292.911 34.8188 293.589 35.254C294.314 35.6893 295.137 35.9311 295.96 35.9311C296.831 35.9311 297.605 35.7376 298.331 35.3024C299.057 34.8672 299.637 34.2385 300.073 33.4647C300.557 32.691 300.75 31.7238 300.75 30.6116Z" fill="white"/>
<defs>
<linearGradient id="paint0_linear_57_791" x1="46.9878" y1="8.43864" x2="8.38006" y2="47.5734" gradientUnits="userSpaceOnUse">
<stop stop-color="#FF2D55"/>
<stop offset="1" stop-color="#FFBC5B"/>
</linearGradient>
<linearGradient id="paint1_linear_57_791" x1="27.3344" y1="18.6576" x2="27.3344" y2="39.6627" gradientUnits="userSpaceOnUse">
<stop stop-color="#A524B3"/>
<stop offset="1" stop-color="#FF2D55"/>
</linearGradient>
<linearGradient id="paint2_linear_57_791" x1="43.7147" y1="29.8607" x2="43.7147" y2="45.2645" gradientUnits="userSpaceOnUse">
<stop stop-color="#A524B3"/>
<stop offset="1" stop-color="#FF2D55"/>
</linearGradient>
</defs>
</svg>
