<svg width="200" height="60" viewBox="0 0 200 60" fill="none" xmlns="http://www.w3.org/2000/svg">
<path d="M101.945 8.2365H104.945V7.50843L104.172 6.73486H100.445L99.6724 7.50843V13.5151L100.445 14.2432H104.172L104.945 13.5151V12.787H101.945V11.2854H104.945V9.78369H101.945V8.2365Z" fill="white"/>
<path d="M104.445 0H100.218V4.23201H104.445V0Z" fill="white"/>
<path d="M96.2178 6.73446V9.73779H93.9908V6.73446H92.4909L91.7183 7.50802V13.5147L92.4909 14.2428H93.9908V11.2395H96.2178V14.2428H97.7177L98.4449 13.5147V7.46253L97.7177 6.68896H96.2178V6.73446Z" fill="white"/>
<path d="M84.4919 6.73486L83.7192 7.50843V8.2365H85.9463V13.4696L86.7189 14.1977H87.4461L88.1733 13.4696V8.2365H90.4004V7.50843L89.6732 6.73486H84.4919Z" fill="white"/>
<path d="M2.99971 16.7915L0 19.7948V31.8082L2.99971 34.8115H14.9985V40.8183H8.99912V37.8149H0V43.8216L2.99971 46.8249H20.9525L23.9522 43.8216V31.8082L20.9525 28.8049H8.99912V22.7982H14.9985V25.8016H23.9977V19.7948L20.9979 16.7915H2.99971Z" fill="white"/>
<path d="M83.8555 16.7915V46.7794H104.808L107.808 43.7761V19.7948L104.808 16.7915H83.8555ZM92.8546 22.7982H98.854V40.7727H92.8546V22.7982Z" fill="white"/>
<path d="M110.808 16.7911V46.779H131.76L134.76 43.7757V34.7656L131.76 31.7623L134.76 28.759V19.7489L131.76 16.7456L110.808 16.7911ZM119.807 34.8111H125.806V40.8179H119.807V34.8111ZM119.807 28.8045V22.7978H125.806V28.8045H119.807Z" fill="white"/>
<path d="M140.758 16.7915L137.759 19.7948V43.7761L140.758 46.7794H158.711L161.711 43.7761V19.7948L158.711 16.7915H140.758ZM146.758 22.7982H152.757V40.7727H146.758V22.7982Z" fill="white"/>
<path d="M194.344 26.1235L188.688 31.7866L194.344 37.4498L200 31.7867L194.344 26.1235Z" fill="white"/>
<path d="M38.581 48.4473L32.9248 54.1104L38.5811 59.7735L44.2373 54.1104L38.581 48.4473Z" fill="white"/>
<path d="M179.71 16.7915V25.8016L176.71 28.8049L173.711 25.8016V16.7915H167.711L164.711 19.7948V28.8049L167.711 31.8082L164.711 34.8115V43.8216L167.711 46.8249H173.711V37.8149L176.71 34.8115L179.71 37.8149V46.8249H185.709L188.709 43.8216V34.8115L185.709 31.8082L188.709 28.8049V19.7948L185.709 16.7915H179.71Z" fill="white"/>
<path d="M71.8566 16.7915V25.8016L62.8575 16.7915H56.8581L53.8584 19.7948V43.7761L56.8581 46.7794H62.8575V28.8049L71.8566 37.8149V46.8249H77.8561L80.8558 43.8216V19.8403L77.8561 16.837H71.8566V16.7915Z" fill="white"/>
<path d="M47.9046 16.8823H29.9519L26.9521 19.8857V43.8669L29.9519 46.8703H35.9513V34.8569H41.9507V46.8703H47.9501L50.9498 43.8669V19.8857L47.9046 16.8823ZM38.951 29.9423L35.1332 26.1199L38.951 22.2975L42.7688 26.1199L38.951 29.9423Z" fill="white"/>
</svg>
