<svg width="210" height="56" viewBox="0 0 210 56" fill="none" xmlns="http://www.w3.org/2000/svg">
<path d="M3.5787 6.69349L30.7503 15.839C33.6 16.6675 35.6876 19.5503 35.6876 22.897V53.1834L31.8107 56V22.897C31.7444 21.2402 30.6509 19.6497 28.9941 19.0201L0.0331356 9.51006L3.5787 6.69349ZM0.0331356 15.4745L3.91006 16.8994V39.4319C3.97633 41.2544 5.06982 42.845 6.72663 43.3089L25.7799 49.6379V53.5148L4.93728 46.8213C2.08757 45.6947 0 42.845 0 39.7633V15.4745H0.0331356ZM12.7574 0L40.658 9.14556C43.5077 10.1728 45.5953 13.0225 45.5953 16.2035V45.7941L41.7183 48.6106V16.5349C41.6521 14.7124 40.5586 13.1219 38.9018 12.658L9.24497 2.78343L12.7574 0ZM12.0284 19.3515L15.9053 20.7763V31.7112C15.9716 33.5006 17.032 35.0911 18.7219 35.5882L25.7799 38.0402V41.9172L16.9657 39.1006C14.0828 37.9408 12.0284 35.058 12.0284 32.0426V19.3515Z" fill="#FAF6F6"/>
<path d="M76.3784 32.1091C76.3784 36.7481 80.1228 40.0617 85.7228 40.0617C90.2956 40.0617 94.9015 37.6428 95.0009 32.5067C95.0672 30.0546 94.1725 26.5422 87.9429 24.7529L84.8944 23.7919C82.3761 23.0961 82.1441 21.8369 82.1441 21.1742C82.1441 19.6499 83.5689 18.5896 85.4577 18.5896C87.6116 18.5896 88.7713 19.7825 88.7713 21.5055H94.2388C94.2388 16.5682 90.4944 13.6191 85.524 13.6191C80.5867 13.6191 76.6766 16.7339 76.6766 21.3067C76.6766 23.6262 77.6376 26.9398 83.337 28.6961L86.4518 29.5576C89.0695 30.3197 89.5997 31.3138 89.5666 32.4736C89.5334 34.1635 88.0092 35.1907 85.7891 35.1907C83.337 35.1907 82.0115 33.7327 81.9453 32.0759H76.3784V32.1091Z" fill="#FAF6F6"/>
<path d="M106.234 31.0157C106.234 28.4973 108.09 26.8074 110.277 26.8074C112.464 26.8074 114.32 28.4642 114.32 31.0157C114.32 33.534 112.497 35.1577 110.277 35.1577C108.156 35.1577 106.234 33.6003 106.234 31.0157ZM100.966 22.2346V48.2133H106.135V37.5435C106.997 39.134 109.084 40.0618 111.238 40.0618C115.711 40.0618 119.688 36.5163 119.688 30.9163C119.688 25.4157 115.745 21.8701 111.238 21.8701C109.084 21.8701 106.997 22.7979 106.135 24.4216V22.2677H100.966V22.2346Z" fill="#FAF6F6"/>
<path d="M138.708 39.6642H143.877V22.2346H138.708V24.1896C137.35 22.2346 134.765 21.8701 133.638 21.8701C129.198 21.8701 124.758 25.3494 124.758 30.9494C124.758 36.5494 129.198 40.0287 133.638 40.0287C134.997 40.0287 137.581 39.3991 138.708 37.7092V39.6642ZM130.093 30.9163C130.093 28.3979 132.28 26.7743 134.467 26.7743C136.587 26.7743 138.675 28.2985 138.675 30.9163C138.675 33.534 136.587 35.0583 134.467 35.0583C132.313 35.0583 130.093 33.4346 130.093 30.9163Z" fill="#FAF6F6"/>
<path d="M157.761 22.2345V15.541H152.592V22.2345H149.411V26.3434H152.592V39.6641H157.761V26.3434H161.406V22.2345H157.761Z" fill="#FAF6F6"/>
<path d="M172.109 22.2344H166.94V39.6639H172.109V22.2344ZM166.277 15.7728C166.277 17.4959 167.768 18.8213 169.524 18.8213C171.28 18.8213 172.705 17.4628 172.705 15.7728C172.705 14.0829 171.28 12.7574 169.524 12.7574C167.768 12.7243 166.277 14.0498 166.277 15.7728Z" fill="#FAF6F6"/>
<path d="M192.123 39.6642H197.292V22.2346H192.123V24.1896C190.765 22.2346 188.18 21.8701 187.053 21.8701C182.613 21.8701 178.173 25.3494 178.173 30.9494C178.173 36.5494 182.613 40.0287 187.053 40.0287C188.412 40.0287 190.997 39.3991 192.123 37.7092V39.6642ZM183.541 30.9163C183.541 28.3979 185.728 26.7743 187.915 26.7743C190.036 26.7743 192.123 28.2985 192.123 30.9163C192.123 33.534 190.036 35.0583 187.915 35.0583C185.728 35.0583 183.541 33.4346 183.541 30.9163Z" fill="#FAF6F6"/>
<path d="M204.417 12.7241V39.6638H209.586V12.7241H204.417Z" fill="#FAF6F6"/>
</svg>
